mtllib fluid_container.mtl

o Floor
v -8.0 -4.10 -6.0
v  8.0 -4.10 -6.0
v  8.0 -4.10  6.0
v -8.0 -4.10  6.0
usemtl floor
f 1 4 3 2

o PencilBody
v -0.3980 -1.4885  0.0000
v -0.4526 -1.4630  0.1043
v -0.5617 -1.4121  0.1043
v -0.6163 -1.3867  0.0000
v -0.5617 -1.4121 -0.1043
v -0.4526 -1.4630 -0.1043
v  0.6374  0.7320  0.0000
v  0.5828  0.7574  0.1043
v  0.4737  0.8083  0.1043
v  0.4192  0.8338  0.0000
v  0.4737  0.8083 -0.1043
v  0.5828  0.7574 -0.1043
usemtl pencil_yellow
f 5 11 12 6
usemtl pencil_yellow_dark
f 6 12 13 7
usemtl pencil_yellow
f 7 13 14 8
usemtl pencil_yellow_dark
f 8 14 15 9
usemtl pencil_yellow
f 9 15 16 10
usemtl pencil_yellow_dark
f 10 16 11 5

o Metal
v -0.5043 -1.7368  0.0000
v -0.5628 -1.7095  0.1117
v -0.6797 -1.6550  0.1117
v -0.7382 -1.6278  0.0000
v -0.6797 -1.6550 -0.1117
v -0.5628 -1.7095 -0.1117
v -0.3902 -1.4921  0.0000
v -0.4487 -1.4648  0.1117
v -0.5656 -1.4103  0.1117
v -0.6241 -1.3831  0.0000
v -0.5656 -1.4103 -0.1117
v -0.4487 -1.4648 -0.1117
usemtl metal
f 17 23 24 18
f 18 24 25 19
f 19 25 26 20
f 20 26 27 21
f 21 27 28 22
f 22 28 23 17

o Eraser
v -0.6305 -1.9869  0.0000
v -0.6850 -1.9615  0.1043
v -0.7941 -1.9106  0.1043
v -0.8487 -1.8852  0.0000
v -0.7941 -1.9106 -0.1043
v -0.6850 -1.9615 -0.1043
v -0.5121 -1.7332  0.0000
v -0.5667 -1.7077  0.1043
v -0.6758 -1.6568  0.1043
v -0.7304 -1.6314  0.0000
v -0.6758 -1.6568 -0.1043
v -0.5667 -1.7077 -0.1043
usemtl eraser
f 29 35 36 30
f 30 36 37 31
f 31 37 38 32
f 32 38 39 33
f 33 39 40 34
f 34 40 35 29
f 29 30 31 32 33 34

o Wood
v  0.6374 0.7320  0.0000
v  0.5828 0.7574  0.1043
v  0.4737 0.8083  0.1043
v  0.4192 0.8338  0.0000
v  0.4737 0.8083 -0.1043
v  0.5828 0.7574 -0.1043
v  0.6970 1.0683  0.0000
v  0.6824 1.0752  0.0279
v  0.6531 1.0888  0.0279
v  0.6385 1.0956  0.0000
v  0.6531 1.0888 -0.0279
v  0.6824 1.0752 -0.0279
usemtl wood
f 41 47 48 42
f 42 48 49 43
f 43 49 50 44
f 44 50 51 45
f 45 51 52 46
f 46 52 47 41

o Graphite
v  0.6970 1.0683  0.0000
v  0.6824 1.0752  0.0279
v  0.6531 1.0888  0.0279
v  0.6385 1.0956  0.0000
v  0.6531 1.0888 -0.0279
v  0.6824 1.0752 -0.0279
v  0.7396 1.2360  0.0000
usemtl graphite
f 53 59 54
f 54 59 55
f 55 59 56
f 56 59 57
f 57 59 58
f 58 59 53
